<svg id="Layer_1" data-name="Layer 1" xmlns="http://www.w3.org/2000/svg" viewBox="0 0 2430.92 1640"><defs><style>.cls-1{fill:#fff3dc;}.cls-1,.cls-2,.cls-3,.cls-4,.cls-5,.cls-7,.cls-8,.cls-9{stroke:#000;stroke-width:6px;}.cls-1,.cls-3,.cls-4,.cls-7,.cls-8,.cls-9{stroke-linecap:round;}.cls-1,.cls-3,.cls-4,.cls-5,.cls-7,.cls-8,.cls-9{stroke-linejoin:round;}.cls-2,.cls-4{fill:none;}.cls-2{stroke-miterlimit:10;}.cls-3{fill:#ffd500;}.cls-5{fill:#151d39;}.cls-6{fill:#00e9a9;}.cls-7{fill:#b3b3b3;}.cls-8{fill:#1af3c0;}.cls-9{fill:#fa4f45;}</style></defs><path d="M800.26,149.27H767v14.3H786.4v10.37H767v15.51h33.29v10.37H754.85v-61h45.41Z"/><path d="M830.42,158.86c8.63,0,14.82,5.49,14.82,14.82v26.14H833.9V176.55c0-5.05-3.22-7.15-6.79-7.15-3.32,0-6.28,1.84-8.46,4.54v25.88H807.32V159.9h11.07v1.57c0,1.4-.17,3.14-.17,3.14A15.66,15.66,0,0,1,830.42,158.86Z"/><path d="M863.36,179.86c0,6.28,4.1,10.9,10,10.9a9.14,9.14,0,0,0,8.8-6.1L892.82,188c-2.61,7.93-10.46,12.9-19.52,12.9-11.85,0-21.27-8.8-21.27-21s9.42-21,21.27-21c9.06,0,16.91,5,19.52,13l-10.63,3.22a9.25,9.25,0,0,0-8.8-6.1C867.46,169,863.36,173.59,863.36,179.86Z"/><path d="M924,171.06h-4.8c-5.75,0-8.37,2.7-8.37,9.68v19.08H899.53V159.9h11v6.37c1.56-4.27,5.4-6.89,10.37-6.89a13.32,13.32,0,0,1,3.14.35Z"/><path d="M943,199.82h-2.88L926.46,159.9h12.63l8.47,28.42,8.54-28.42h12.29l-15.95,46.2c-2,5.84-5.14,9-12.47,9h-7.85v-9.5h5.62a4.17,4.17,0,0,0,4.45-3.14Z"/><path d="M985.46,215.08H974.13V159.9h11.33v1.92c0,1.92-.17,2.79-.17,3.23,1.92-3.4,6.63-6.19,12.64-6.19,11,0,19.35,8.8,19.35,21s-8.45,21-19.43,21c-5.67,0-10.38-2.7-12.39-6.1Zm-.26-35.22c0,6.1,4.18,11,10.21,11s10.19-4.89,10.19-11S1001.42,169,995.41,169,985.2,173.68,985.2,179.86Z"/><path d="M1038.89,144.74V159.9h8.67v9.59h-8.63v18c0,2.53,2,2.88,3.75,2.88,2.88,0,5.23-.26,5.23-.26v9.67s-5.49.53-8.8.53c-5.67,0-11.51-1-11.51-9V169.49h-6.27V159.9h6.27V144.74Z"/><path d="M1069.05,199.82h-11.33V169.49h-5.58V159.9h16.91Zm-6.19-61a7.32,7.32,0,0,1,7.32,7.31h0a7.28,7.28,0,1,1-7.32-7.32Z"/><path d="M1076.32,179.86c0-12.2,9.5-21,21.36-21s21.35,8.8,21.35,21-9.51,21-21.36,21S1076.32,192.07,1076.32,179.86Zm11.33,0c0,6.19,4.1,10.9,10,10.9s9.93-4.71,9.93-10.9-4.09-10.89-9.93-10.89S1087.65,173.59,1087.65,179.86Z"/><path d="M1149.32,158.86c8.63,0,14.81,5.49,14.81,14.82v26.14H1152.8V176.55c0-5.05-3.22-7.15-6.79-7.15-3.32,0-6.28,1.84-8.46,4.54v25.88h-11.33V159.9h11.11v1.57c0,1.4-.17,3.14-.17,3.14A15.69,15.69,0,0,1,1149.32,158.86Z"/><path d="M1244.67,199.82h-14.38l-6.19-6.53c-4,5.14-9.68,7.58-16.65,7.58-10.37,0-18.56-7.06-18.56-17.08,0-6.89,3.83-13,10.54-17.87-3.48-4-5-7.93-5-12.38,0-6.88,5.31-15.77,18.21-15.77,9.41,0,16.21,6.36,16.21,13.85a13.82,13.82,0,0,1-2.09,7.67l-10-1a11.16,11.16,0,0,0,1.22-4.45,5.73,5.73,0,0,0-5.67-5.75,5.87,5.87,0,0,0-6.18,5.52c0,.16,0,.33,0,.5q0,4.05,4.71,9.15c4.45,4.79,10.2,10.89,12.46,13.16a73.87,73.87,0,0,0,4.45-10.11h13.16a100.74,100.74,0,0,1-9.33,18.3l13.08,13.51ZM1205.8,174.2c-3.49,3.48-4.8,5.93-4.8,9.15,0,4.27,3.84,7.06,7.32,7.06a9.82,9.82,0,0,0,8.11-4.88c-3.49-3.84-7.06-7.58-10.63-11.33Z"/><path d="M1290.43,199.82h-20.92v-61h20.92c20,0,31.63,12.38,31.63,30.51S1310.38,199.82,1290.43,199.82Zm-.44-50.64h-8.37v40.36H1290c11.16,0,19.7-6.54,19.7-20.22C1309.69,155.81,1301.19,149.18,1290,149.18Z"/><path d="M1368.43,183.18h-29.72a9.48,9.48,0,0,0,17.17,3.92l11.77,1.22c-3.58,8.54-11.07,12.55-20,12.55-11.94,0-20.92-8.8-20.92-21s8.8-21,20.74-21c11,0,20.92,7.15,20.92,23.88Zm-30-7.59h17.87a8.67,8.67,0,0,0-8.81-7.32A8.9,8.9,0,0,0,1338.45,175.59Z"/><path d="M1384,179.86c0,6.28,4.1,10.9,10,10.9a9.15,9.15,0,0,0,8.81-6.1l10.63,3.31c-2.62,7.93-10.46,12.9-19.53,12.9-11.85,0-21.26-8.8-21.26-21s9.41-21,21.26-21c9.07,0,16.91,5,19.53,13l-10.63,3.22A9.28,9.28,0,0,0,1394,169C1388,169,1384,173.59,1384,179.86Z"/><path d="M1444.61,171.06h-4.8c-5.75,0-8.36,2.7-8.36,9.68v19.08h-11.33V159.9h11v6.37c1.57-4.27,5.4-6.89,10.37-6.89a13.26,13.26,0,0,1,3.14.35Z"/><path d="M1463.61,199.82h-2.88l-13.68-39.92h12.64l8.45,28.42,8.54-28.42H1489l-16,46.2c-2,5.84-5.14,9-12.46,9h-7.85v-9.5h5.58a4.17,4.17,0,0,0,4.45-3.14Z"/><path d="M1506.05,215.08h-11.33V159.9h11.33v1.92c0,1.92-.17,2.79-.17,3.23,1.92-3.4,6.62-6.19,12.64-6.19,11,0,19.35,8.8,19.35,21s-8.46,21-19.44,21c-5.67,0-10.37-2.7-12.38-6.1Zm-.26-35.22c0,6.1,4.18,11,10.2,11s10.2-4.89,10.2-11S1522,169,1516,169,1505.79,173.68,1505.79,179.86Z"/><path d="M1559.48,144.74V159.9h8.63v9.59h-8.63v18c0,2.53,2,2.88,3.75,2.88,2.87,0,5.23-.26,5.23-.26v9.67s-5.49.53-8.81.53c-5.66,0-11.5-1-11.5-9V169.49h-6.28V159.9h6.28V144.74Z"/><path d="M1589.68,199.82h-11.33V169.49h-5.58V159.9h16.91Zm-6.19-61a7.31,7.31,0,0,1,7.32,7.31h0a7.28,7.28,0,1,1-7.36-7.32Z"/><path d="M1596.87,179.86c0-12.2,9.5-21,21.35-21s21.36,8.8,21.36,21-9.5,21-21.36,21S1596.87,192.07,1596.87,179.86Zm11.33,0c0,6.19,4.1,10.9,10,10.9s9.94-4.71,9.94-10.9-4.1-10.89-9.94-10.89S1608.2,173.59,1608.2,179.86Z"/><path d="M1669.91,158.86c8.63,0,14.82,5.49,14.82,14.82v26.14h-11.34V176.55c0-5.05-3.22-7.15-6.79-7.15-3.32,0-6.28,1.84-8.46,4.54v25.88h-11.33V159.9h11.07v1.57c0,1.4-.17,3.14-.17,3.14A15.66,15.66,0,0,1,1669.91,158.86Z"/><path d="M911.34,946.76V920.87H887.11v25.89H875v-61h12.12V910.5h24.23V885.75h12.12v61Z"/><path d="M956.05,920.18c0-2.88-2.27-4.71-6.63-4.71-4,0-9.06,2-12,3.75L933,910.68A34.08,34.08,0,0,1,950,905.8c9.07,0,17.35,4.18,17.35,14.73v26.23H956.05V943c-2.09,3.14-6.63,4.8-11.16,4.8-8.45,0-13.94-6-13.94-12.55,0-7.59,5.57-12.29,14.46-12.29h7.85c1.92,0,2.79-.87,2.79-2.36Zm0,12.29v-2.88c-.7.7-1.92.87-3.49.87h-4.27c-3.57,0-5.67,1.57-5.67,4.36s2.18,4.71,5.67,4.71C952.39,939.53,956.05,937.43,956.05,932.47Z"/><path d="M1000.24,919A14.53,14.53,0,0,0,990.4,915c-3,0-4,1.48-4,2.7,0,1.39.87,2.35,3,3.05l6.62,2.09c8.2,2.7,11,7.15,11,12.38,0,5.84-5,12.64-15.87,12.64a25.77,25.77,0,0,1-17.61-6.28l6-7.84c2.88,2.7,8,5,11.77,5,2.7,0,4.35-1.39,4.35-3,0-2-1.3-2.87-4.53-3.83l-6.8-2c-6.45-2.09-9.24-6.45-9.24-11.68,0-6.53,5.93-12.37,15.52-12.37a23.8,23.8,0,0,1,16.12,5.92Z"/><path d="M1037.29,905.8c8.62,0,14.81,5.49,14.81,14.81v26.15h-11.33V923.49c0-5.06-3.22-7.15-6.8-7.15a11.06,11.06,0,0,0-8.45,4.53v25.89h-11.33v-61h11.16v22.66c0,1.4-.17,3.14-.17,3.14A15.68,15.68,0,0,1,1037.29,905.8Z"/><path d="M1075.1,946.76h-11.33V916.43h-5.57v-9.59h16.9Zm-6.18-61a7.33,7.33,0,0,1,7.32,7.3v0a7.28,7.28,0,1,1-7.32-7.32Z"/><path d="M1108,905.8c8.64,0,14.82,5.49,14.82,14.81v26.15h-11.33V923.49c0-5.06-3.24-7.15-6.81-7.15a11.06,11.06,0,0,0-8.45,4.53v25.89h-11.33V906.84h11.07v1.57c0,1.4-.18,3.14-.18,3.14A15.69,15.69,0,0,1,1108,905.8Z"/><path d="M1172.55,906.84v42.88c0,6.28-3.13,12.29-12.82,12.29h-17.34v-9.58h14.55c2,0,4.28-.53,4.28-3.58v-7.67c-1.92,3.23-6.72,6-12.38,6-10.81,0-19.18-8.2-19.18-20.66s8.28-20.74,19.09-20.74c6,0,10.63,2.79,12.64,6.18,0-.43-.17-1.22-.17-3.31v-1.83Zm-21.18,30.59c6,0,10.11-4.44,10.11-10.89s-4.1-11-10.11-11-10,4.44-10,11S1145.44,937.43,1151.37,937.43Z"/><path d="M1247.77,946.76H1234.7l-5.23-16.65h-18.4l-4.88,16.65h-12.73l19.7-61h14.47Zm-27.46-47.94h-.18L1214,919.74h12.46Z"/><path d="M1264.58,946.76h-11.24v-61h11.24Z"/><path d="M1314.79,906.84v42.88c0,6.28-3.14,12.29-12.82,12.29h-17.34v-9.58h14.56c2,0,4.27-.53,4.27-3.58v-7.67c-1.92,3.23-6.72,6-12.38,6-10.81,0-19.18-8.2-19.18-20.66s8.28-20.74,19.09-20.74c6,0,10.64,2.79,12.64,6.18,0-.43-.17-1.22-.17-3.31v-1.83Zm-21.18,30.59c6,0,10.11-4.44,10.11-10.89s-4.1-11-10.11-11-10,4.44-10,11S1287.68,937.43,1293.61,937.43Z"/><path d="M1322,926.8c0-12.2,9.5-21,21.35-21s21.36,8.8,21.36,21-9.5,21-21.36,21S1322,939,1322,926.8Zm11.33,0c0,6.19,4.1,10.9,10,10.9s9.94-4.71,9.94-10.9-4.1-10.89-9.94-10.89S1333.35,920.53,1333.35,926.8Z"/><path d="M1396.45,918h-4.79c-5.75,0-8.37,2.7-8.37,9.67v19.09H1372V906.84h11v6.36c1.57-4.27,5.41-6.88,10.37-6.88a12.71,12.71,0,0,1,3.14.35Z"/><path d="M1416.5,946.76h-11.33V916.43h-5.58v-9.59h16.91Zm-6.19-61a7.31,7.31,0,0,1,7.32,7.3v0a7.28,7.28,0,1,1-7.32-7.32Z"/><path d="M1440.55,891.68v15.16h8.63v9.59h-8.63v18c0,2.53,2,2.88,3.75,2.88,2.88,0,5.23-.26,5.23-.26v9.67s-5.49.52-8.8.52c-5.67,0-11.51-1-11.51-9V916.43H1423v-9.59h6.27V891.68Z"/><path d="M1480.12,905.8c8.63,0,14.82,5.49,14.82,14.81v26.15h-11.33V923.49c0-5.06-3.22-7.15-6.8-7.15a11.06,11.06,0,0,0-8.45,4.53v25.89H1457v-61h11.15v22.66c0,1.4-.17,3.14-.17,3.14A15.67,15.67,0,0,1,1480.12,905.8Z"/><path d="M1556.73,923.32c0-4.89-3.13-7-6.62-7-3.22,0-6.1,1.83-8.28,4.53v25.89H1530.5V923.32c0-4.8-3-7-6.62-7-3.23,0-6.1,1.83-8.28,4.53v25.89h-11.33V906.84h11.07v1.57c0,1.4-.18,3.14-.18,3.14a15.45,15.45,0,0,1,11.94-5.75c5.93,0,10.55,2.52,12.81,7.23,3.32-4.62,7.85-7.23,13.43-7.23,8.62,0,14.73,5.49,14.73,14.81v26.15h-11.34Z"/><polygon class="cls-1" points="750.6 578.87 534.72 578.87 534.72 340.98 575.98 300.05 750.6 300.05 750.6 578.87"/><polyline class="cls-2" points="576.14 300.05 576.14 341.48 534.72 341.48"/><line class="cls-2" x1="609.4" y1="368.33" x2="729.71" y2="368.33"/><line class="cls-2" x1="557.6" y1="393.21" x2="729.71" y2="393.21"/><line class="cls-2" x1="557.6" y1="418.07" x2="729.71" y2="418.07"/><line class="cls-2" x1="557.6" y1="441.95" x2="729.71" y2="441.95"/><line class="cls-2" x1="557.6" y1="465.83" x2="729.71" y2="465.83"/><line class="cls-2" x1="557.6" y1="489.71" x2="729.71" y2="489.71"/><line class="cls-2" x1="557.6" y1="513.58" x2="729.71" y2="513.58"/><line class="cls-2" x1="557.6" y1="537.46" x2="729.71" y2="537.46"/><polygon class="cls-1" points="750.6 1346.72 534.72 1346.72 534.72 1108.84 575.98 1067.91 750.6 1067.91 750.6 1346.72"/><polyline class="cls-2" points="576.14 1067.91 576.14 1109.34 534.72 1109.34"/><line class="cls-2" x1="609.4" y1="1136.19" x2="729.71" y2="1136.19"/><line class="cls-2" x1="557.6" y1="1161.06" x2="729.71" y2="1161.06"/><line class="cls-2" x1="557.6" y1="1185.93" x2="729.71" y2="1185.93"/><line class="cls-2" x1="557.6" y1="1209.81" x2="729.71" y2="1209.81"/><line class="cls-2" x1="557.6" y1="1233.68" x2="729.71" y2="1233.68"/><line class="cls-2" x1="557.6" y1="1257.56" x2="729.71" y2="1257.56"/><line class="cls-2" x1="557.6" y1="1281.44" x2="729.71" y2="1281.44"/><line class="cls-2" x1="557.6" y1="1305.32" x2="729.71" y2="1305.32"/><polygon class="cls-1" points="1900.2 578.87 1684.32 578.87 1684.32 340.98 1725.59 300.05 1900.2 300.05 1900.2 578.87"/><polyline class="cls-2" points="1725.74 300.05 1725.74 341.48 1684.32 341.48"/><line class="cls-2" x1="1759" y1="368.33" x2="1879.31" y2="368.33"/><line class="cls-2" x1="1707.2" y1="393.21" x2="1879.31" y2="393.21"/><line class="cls-2" x1="1707.2" y1="418.07" x2="1879.31" y2="418.07"/><line class="cls-2" x1="1707.2" y1="441.95" x2="1879.31" y2="441.95"/><line class="cls-2" x1="1707.2" y1="465.83" x2="1879.31" y2="465.83"/><line class="cls-2" x1="1707.2" y1="489.71" x2="1879.31" y2="489.71"/><line class="cls-2" x1="1707.2" y1="513.58" x2="1879.31" y2="513.58"/><line class="cls-2" x1="1707.2" y1="537.46" x2="1879.31" y2="537.46"/><polygon class="cls-1" points="1900.2 1349.34 1684.32 1349.34 1684.32 1111.45 1725.59 1070.52 1900.2 1070.52 1900.2 1349.34"/><polyline class="cls-2" points="1725.74 1070.52 1725.74 1111.95 1684.32 1111.95"/><path class="cls-3" d="M858.93,375a48.37,48.37,0,1,0,42.42,71.62H915.2l9.37-11.2,14,11.2L951.45,435l12.85,11.6,14.45-10.4,12,10.4h1l23.46-23.45-23.46-23.46H901.14A48.36,48.36,0,0,0,858.93,375ZM824.2,423.38a16.27,16.27,0,1,1,16.28,16.26h0A16.26,16.26,0,0,1,824.2,423.38Z"/><line class="cls-4" x1="904.09" y1="423.18" x2="1010.96" y2="423.18"/><path class="cls-3" d="M1489.07,375a48.37,48.37,0,1,0,42.42,71.62h13.86l9.36-11.2,14,11.2L1581.6,435l12.85,11.6,14.45-10.4,12,10.4h1l23.46-23.45-23.46-23.46h-90.65A48.35,48.35,0,0,0,1489.07,375Zm-34.72,48.37a16.27,16.27,0,1,1,16.27,16.26h0a16.26,16.26,0,0,1-16.26-16.26Z"/><line class="cls-4" x1="1534.24" y1="423.18" x2="1641.1" y2="423.18"/><polyline class="cls-4" points="959.2 1178.27 991.89 1210.96 959.2 1243.64"/><line class="cls-4" x1="990.55" y1="1210.96" x2="807.88" y2="1210.96"/><polyline class="cls-4" points="1610.27 1178.27 1642.96 1210.96 1610.27 1243.64"/><line class="cls-4" x1="1641.62" y1="1210.96" x2="1458.94" y2="1210.96"/><rect class="cls-5" x="1070.22" y="304.41" width="320.74" height="271.93"/><path class="cls-6" d="M1120.05,349.07c0,12.59-4.91,18.36-12.34,18.36s-12.39-5.77-12.39-18.36c0-12.38,4.91-18.25,12.39-18.25S1120.05,336.66,1120.05,349.07ZM1107.7,361c3.49,0,5.16-4,5.16-11.88s-1.67-11.83-5.16-11.83-5.15,4.05-5.15,11.83S1104.21,361,1107.7,361Z"/><path class="cls-6" d="M1125.51,331.43h13.57v29.32h6.82v6.1h-20.77v-6.1H1132V337.53h-6.42Z"/><path class="cls-6" d="M1174.54,349.07c0,12.59-4.91,18.36-12.33,18.36s-12.39-5.77-12.39-18.36c0-12.38,4.9-18.25,12.39-18.25S1174.54,336.66,1174.54,349.07ZM1162.21,361c3.48,0,5.15-4,5.15-11.88s-1.67-11.83-5.15-11.83-5.16,4.05-5.16,11.83S1158.67,361,1162.21,361Z"/><path class="cls-6" d="M1201.83,349.07c0,12.59-4.91,18.36-12.33,18.36s-12.39-5.77-12.39-18.36c0-12.38,4.9-18.25,12.39-18.25S1201.83,336.66,1201.83,349.07ZM1189.45,361c3.49,0,5.15-4,5.15-11.88s-1.66-11.83-5.15-11.83-5.16,4.05-5.16,11.83S1185.92,361,1189.45,361Z"/><path class="cls-6" d="M1207.24,331.43h13.56v29.32h6.82v6.1h-20.78v-6.1h6.83V337.53h-6.43Z"/><path class="cls-6" d="M1256.28,349.07c0,12.59-4.9,18.36-12.34,18.36s-12.38-5.77-12.38-18.36c0-12.38,4.91-18.25,12.38-18.25S1256.28,336.66,1256.28,349.07ZM1243.94,361c3.49,0,5.16-4,5.16-11.88s-1.67-11.83-5.16-11.83-5.15,4.05-5.15,11.83,1.62,11.88,5.15,11.88Z"/><path class="cls-6" d="M1283.52,349.07c0,12.59-4.9,18.36-12.33,18.36s-12.38-5.77-12.38-18.36c0-12.38,4.9-18.25,12.38-18.25S1283.52,336.66,1283.52,349.07ZM1271.19,361c3.49,0,5.16-4,5.16-11.88s-1.67-11.83-5.16-11.83-5.15,4.05-5.15,11.83,1.61,11.88,5.15,11.88Z"/><path class="cls-6" d="M1310.78,349.07c0,12.59-4.9,18.36-12.34,18.36s-12.38-5.77-12.38-18.36c0-12.38,4.91-18.25,12.38-18.25S1310.78,336.66,1310.78,349.07ZM1298.44,361c3.49,0,5.16-4,5.16-11.88s-1.67-11.83-5.16-11.83-5.15,4.05-5.15,11.83,1.61,11.88,5.15,11.88Z"/><path class="cls-6" d="M1316.23,331.43h13.55v29.32h6.82v6.1h-20.78v-6.1h6.83V337.53h-6.42Z"/><path class="cls-6" d="M1365.27,349.07c0,12.59-4.91,18.36-12.34,18.36s-12.39-5.77-12.39-18.36c0-12.38,4.91-18.25,12.39-18.25S1365.27,336.66,1365.27,349.07ZM1352.93,361c3.48,0,5.16-4,5.16-11.88s-1.67-11.83-5.16-11.83-5.15,4.05-5.15,11.83,1.61,11.88,5.15,11.88Z"/><path class="cls-6" d="M1120.05,409.73c0,12.59-4.91,18.36-12.34,18.36s-12.39-5.77-12.39-18.36c0-12.38,4.91-18.25,12.39-18.25S1120.05,397.35,1120.05,409.73Zm-12.35,11.88c3.49,0,5.16-4,5.16-11.88s-1.67-11.82-5.16-11.82-5.15,4-5.15,11.82S1104.21,421.61,1107.7,421.61Z"/><path class="cls-6" d="M1147.3,409.73c0,12.59-4.91,18.36-12.35,18.36s-12.38-5.77-12.38-18.36c0-12.38,4.91-18.25,12.38-18.25S1147.3,397.35,1147.3,409.73ZM1135,421.61c3.49,0,5.16-4,5.16-11.88s-1.66-11.82-5.16-11.82-5.15,4-5.15,11.82S1131.42,421.61,1135,421.61Z"/><path class="cls-6" d="M1174.54,409.73c0,12.59-4.91,18.36-12.33,18.36s-12.39-5.77-12.39-18.36c0-12.38,4.9-18.25,12.39-18.25S1174.54,397.35,1174.54,409.73Zm-12.33,11.88c3.48,0,5.15-4,5.15-11.88s-1.67-11.82-5.15-11.82-5.16,4-5.16,11.82S1158.67,421.61,1162.21,421.61Z"/><path class="cls-6" d="M1180,392.09h13.55v29.32h6.82v6.1H1179.6v-6.1h6.82V398.16H1180Z"/><path class="cls-6" d="M1229,409.73c0,12.59-4.9,18.36-12.33,18.36s-12.39-5.77-12.39-18.36c0-12.38,4.9-18.25,12.39-18.25S1229,397.35,1229,409.73Zm-12.33,11.88c3.49,0,5.15-4,5.15-11.88s-1.66-11.82-5.15-11.82-5.16,4-5.16,11.82S1213.16,421.61,1216.7,421.61Z"/><path class="cls-6" d="M1234.49,392.09H1248v29.32h6.83v6.1h-20.77v-6.1h6.82V398.16h-6.42Z"/><path class="cls-6" d="M1283.52,409.73c0,12.59-4.9,18.36-12.33,18.36s-12.38-5.77-12.38-18.36c0-12.38,4.9-18.25,12.38-18.25S1283.52,397.35,1283.52,409.73Zm-12.33,11.88c3.49,0,5.16-4,5.16-11.88s-1.67-11.82-5.16-11.82-5.15,4-5.15,11.82,1.61,11.88,5.15,11.88Z"/><path class="cls-6" d="M1289,392.09h13.54v29.32h6.83v6.1h-20.78v-6.1h6.82V398.16H1289Z"/><path class="cls-6" d="M1338,409.73c0,12.59-4.89,18.36-12.33,18.36s-12.38-5.77-12.38-18.36c0-12.38,4.9-18.25,12.38-18.25S1338,397.35,1338,409.73Zm-12.33,11.88c3.49,0,5.16-4,5.16-11.88s-1.66-11.82-5.16-11.82-5.15,4-5.15,11.82S1322.11,421.61,1325.68,421.61Z"/><path class="cls-6" d="M1343.48,392.09H1357v29.32h6.83v6.1h-20.78v-6.1h6.82V398.16h-6.41Z"/><path class="cls-6" d="M1098.26,452.75h13.55v29.32h6.82v6.1h-20.78v-6.1h6.83V458.82h-6.42Z"/><path class="cls-6" d="M1147.3,470.39c0,12.59-4.91,18.36-12.35,18.36s-12.38-5.77-12.38-18.36c0-12.38,4.91-18.25,12.38-18.25S1147.3,458,1147.3,470.39ZM1135,482.27c3.49,0,5.16-4,5.16-11.88s-1.66-11.82-5.16-11.82-5.15,4-5.15,11.82S1131.42,482.27,1135,482.27Z"/><path class="cls-6" d="M1152.75,452.75h13.55v29.32h6.82v6.1h-20.77v-6.1h6.83V458.82h-6.43Z"/><path class="cls-6" d="M1201.83,470.39c0,12.59-4.91,18.36-12.33,18.36s-12.39-5.77-12.39-18.36c0-12.38,4.9-18.25,12.39-18.25S1201.83,458,1201.83,470.39Zm-12.38,11.88c3.49,0,5.15-4,5.15-11.88s-1.66-11.82-5.15-11.82-5.16,4-5.16,11.82S1185.92,482.27,1189.45,482.27Z"/><path class="cls-6" d="M1207.24,452.75h13.56v29.32h6.82v6.1h-20.78v-6.1h6.83V458.82h-6.43Z"/><path class="cls-6" d="M1256.28,470.39c0,12.59-4.9,18.36-12.34,18.36s-12.38-5.77-12.38-18.36c0-12.38,4.91-18.25,12.38-18.25S1256.28,458,1256.28,470.39Zm-12.34,11.88c3.49,0,5.16-4,5.16-11.88s-1.67-11.82-5.16-11.82-5.15,4-5.15,11.82,1.62,11.88,5.15,11.88Z"/><path class="cls-6" d="M1261.74,452.75h13.55v29.32h6.82v6.1h-20.78v-6.1h6.83V458.82h-6.42Z"/><path class="cls-6" d="M1289,452.75h13.54v29.32h6.83v6.1h-20.78v-6.1h6.82V458.82H1289Z"/><path class="cls-6" d="M1338,470.39c0,12.59-4.89,18.36-12.33,18.36s-12.38-5.77-12.38-18.36c0-12.38,4.9-18.25,12.38-18.25S1338,458,1338,470.39Zm-12.33,11.88c3.49,0,5.16-4,5.16-11.88s-1.66-11.82-5.16-11.82-5.15,4-5.15,11.82S1322.11,482.27,1325.68,482.27Z"/><path class="cls-6" d="M1365.27,470.39c0,12.59-4.91,18.36-12.34,18.36s-12.39-5.77-12.39-18.36c0-12.38,4.91-18.25,12.39-18.25S1365.27,458,1365.27,470.39Zm-12.34,11.88c3.48,0,5.16-4,5.16-11.88s-1.67-11.82-5.16-11.82-5.15,4-5.15,11.82,1.61,11.88,5.15,11.88Z"/><path class="cls-6" d="M1098.26,513.41h13.55v29.32h6.82v6.11h-20.78v-6.11h6.83V519.48h-6.42Z"/><path class="cls-6" d="M1147.3,531c0,12.59-4.91,18.36-12.35,18.36s-12.38-5.77-12.38-18.36c0-12.38,4.91-18.25,12.38-18.25S1147.3,518.67,1147.3,531ZM1135,542.9c3.49,0,5.16-4,5.16-11.88s-1.66-11.83-5.16-11.83-5.15,4-5.15,11.83,1.62,11.91,5.15,11.91Z"/><path class="cls-6" d="M1152.75,513.41h13.55v29.32h6.82v6.11h-20.77v-6.11h6.83V519.48h-6.43Z"/><path class="cls-6" d="M1201.83,531c0,12.59-4.91,18.36-12.33,18.36s-12.39-5.77-12.39-18.36c0-12.38,4.9-18.25,12.39-18.25S1201.83,518.67,1201.83,531Zm-12.38,11.91c3.49,0,5.15-4,5.15-11.87s-1.66-11.83-5.15-11.83-5.16,4-5.16,11.83S1185.92,542.93,1189.45,542.93Z"/><path class="cls-6" d="M1207.24,513.41h13.56v29.32h6.82v6.11h-20.78v-6.11h6.83V519.48h-6.43Z"/><path class="cls-6" d="M1256.28,531c0,12.59-4.9,18.36-12.34,18.36s-12.38-5.77-12.38-18.36c0-12.38,4.91-18.25,12.38-18.25S1256.28,518.67,1256.28,531Zm-12.34,11.88c3.49,0,5.16-4,5.16-11.88s-1.67-11.83-5.16-11.83-5.15,4-5.15,11.83,1.62,11.91,5.15,11.91Z"/><path class="cls-6" d="M1283.52,531c0,12.59-4.9,18.36-12.33,18.36s-12.38-5.77-12.38-18.36c0-12.38,4.9-18.25,12.38-18.25S1283.52,518.67,1283.52,531Zm-12.33,11.88c3.49,0,5.16-4,5.16-11.88s-1.67-11.83-5.16-11.83-5.15,4-5.15,11.83,1.61,11.91,5.15,11.91Z"/><path class="cls-6" d="M1289,513.41h13.54v29.32h6.83v6.11h-20.78v-6.11h6.82V519.48H1289Z"/><path class="cls-6" d="M1338,531c0,12.59-4.89,18.36-12.33,18.36s-12.38-5.77-12.38-18.36c0-12.38,4.9-18.25,12.38-18.25S1338,518.67,1338,531Zm-12.33,11.91c3.49,0,5.16-4,5.16-11.87s-1.66-11.83-5.16-11.83-5.15,4-5.15,11.83S1322.11,542.93,1325.68,542.93Z"/><path class="cls-6" d="M1343.48,513.41H1357v29.32h6.83v6.11h-20.78v-6.11h6.82V519.48h-6.41Z"/><rect class="cls-5" x="1070.22" y="1074.88" width="320.74" height="271.93"/><path d="M1097.81,1453.14v-15h-14v15h-7v-35.38h7v14.35h14v-14.35h7v35.38Z"/><path d="M1123.74,1437.69c0-1.67-1.31-2.74-3.84-2.74a15.78,15.78,0,0,0-7,2.18l-2.61-5a19.82,19.82,0,0,1,9.9-2.82c5.23,0,10,2.42,10,8.54v15.25h-6.53V1451c-1.21,1.82-3.84,2.78-6.47,2.78-4.91,0-8.09-3.49-8.09-7.28,0-4.36,3.24-7.13,8.4-7.13h4.55c1.1,0,1.61-.51,1.61-1.36Zm0,7.12v-1.66a2.9,2.9,0,0,1-2,.5h-2.48c-2.07,0-3.29.87-3.29,2.53s1.27,2.73,3.29,2.73c2.41,0,4.5-1.21,4.5-4.1Z"/><path d="M1149.37,1437a8.39,8.39,0,0,0-5.71-2.37c-1.74,0-2.33.87-2.33,1.56s.51,1.37,1.75,1.74l3.84,1.24c4.75,1.56,6.37,4.14,6.37,7.17,0,3.39-2.88,7.33-9.2,7.33a15,15,0,0,1-10.22-3.63l3.49-4.55a11.44,11.44,0,0,0,6.82,2.87c1.56,0,2.53-.81,2.53-1.74,0-1.16-.76-1.66-2.61-2.22l-3.94-1.17c-3.75-1.21-5.36-3.74-5.36-6.77,0-3.79,3.43-7.17,9-7.17a13.73,13.73,0,0,1,9.35,3.43Z"/><path d="M1170.85,1429.35c5,0,8.6,3.18,8.6,8.59v15.2h-6.57v-13.5c0-2.92-1.88-4.15-3.94-4.15a6.45,6.45,0,0,0-4.91,2.62v15h-6.57v-35.38h6.47v13.14c0,.8-.1,1.81-.1,1.81A9.08,9.08,0,0,1,1170.85,1429.35Z"/><path d="M1202.85,1439.05v14.09h-7v-35.38h25.63v6.1h-18.61v9.19h13.65v6.11Z"/><path d="M1222.11,1444.61V1430h6.57v13.45a4.45,4.45,0,1,0,8.9,0V1430h6.52v14.66c0,4.86-3.84,9.1-11,9.1S1222.11,1449.47,1222.11,1444.61Z"/><path d="M1262.84,1429.35c5,0,8.59,3.18,8.59,8.59v15.2h-6.57v-13.5c0-2.92-1.87-4.15-3.94-4.15a6.43,6.43,0,0,0-4.9,2.62v15h-6.58V1430h6.43v.87c0,.8-.11,1.81-.11,1.81A9.14,9.14,0,0,1,1262.84,1429.35Z"/><path d="M1281.91,1441.53c0,3.64,2.38,6.32,5.81,6.32a5.31,5.31,0,0,0,5.11-3.54l6.17,1.92c-1.51,4.6-6.1,7.48-11.33,7.48a12.2,12.2,0,0,1,0-24.4c5.23,0,9.81,2.93,11.33,7.53l-6.17,1.86a5.38,5.38,0,0,0-5.11-3.54C1284.29,1435.21,1281.91,1437.89,1281.91,1441.53Z"/><path d="M1311.19,1421.16V1430h5v5.56h-5V1446c0,1.47,1.16,1.67,2.17,1.67,1.66,0,3-.15,3-.15v5.65s-3.18.3-5.11.3c-3.28,0-6.67-.55-6.67-5.23v-12.69H1301V1430h3.64v-8.8Z"/><path d="M1328.67,1453.14h-6.56v-17.59h-3.24V1430h9.81Zm-3.58-35.38a4.23,4.23,0,0,1,4.24,4.23h0a4.22,4.22,0,1,1-4.27-4.28h0Z"/><path d="M1332.87,1441.53a12.39,12.39,0,0,1,24.77,0,12.39,12.39,0,0,1-24.77,0Zm6.57,0c0,3.59,2.37,6.32,5.82,6.32s5.76-2.73,5.76-6.32-2.38-6.32-5.76-6.32-5.82,2.68-5.82,6.32Z"/><path d="M1375.27,1429.35c5,0,8.6,3.18,8.6,8.59v15.2h-6.57v-13.5c0-2.92-1.88-4.15-3.94-4.15a6.45,6.45,0,0,0-4.91,2.62v15h-6.57V1430h6.42v.87c0,.8-.1,1.81-.1,1.81A9.13,9.13,0,0,1,1375.27,1429.35Z"/><path d="M1684.46,1453.14v-15H1670.4v15h-7v-35.38h7v14.35h14.06v-14.35h7v35.38Z"/><path d="M1710.38,1437.69c0-1.67-1.31-2.74-3.84-2.74a15.78,15.78,0,0,0-7,2.18l-2.62-5a19.91,19.91,0,0,1,9.91-2.82c5.23,0,10.06,2.42,10.06,8.54v15.25h-6.57V1451c-1.21,1.82-3.84,2.78-6.47,2.78-4.9,0-8.09-3.49-8.09-7.28,0-4.36,3.24-7.13,8.39-7.13h4.55c1.11,0,1.62-.51,1.62-1.36Zm0,7.12v-1.66a2.88,2.88,0,0,1-2,.5h-2.47c-2.08,0-3.29.87-3.29,2.53s1.26,2.73,3.29,2.73c2.37,0,4.49-1.21,4.49-4.1Z"/><path d="M1736,1437a8.39,8.39,0,0,0-5.72-2.37c-1.74,0-2.33.87-2.33,1.56s.51,1.37,1.75,1.74l3.83,1.22c4.76,1.56,6.37,4.14,6.37,7.17,0,3.4-2.87,7.33-9.19,7.33a14.94,14.94,0,0,1-10.22-3.63l3.49-4.55a11.51,11.51,0,0,0,6.82,2.88c1.57,0,2.53-.81,2.53-1.75,0-1.16-.76-1.66-2.61-2.22l-4-1.17c-3.74-1.21-5.36-3.74-5.36-6.77,0-3.79,3.44-7.17,9-7.17a13.78,13.78,0,0,1,9.35,3.43Z"/><path d="M1757.5,1429.35c5,0,8.6,3.18,8.6,8.59v15.2h-6.58v-13.5c0-2.92-1.87-4.15-3.94-4.15a6.43,6.43,0,0,0-4.9,2.62v15h-6.57v-35.38h6.46v13.14c0,.8-.1,1.81-.1,1.81A9.09,9.09,0,0,1,1757.5,1429.35Z"/><path d="M1794.19,1443.45H1777a5.5,5.5,0,0,0,10,2.28l6.82.7c-2.07,5-6.41,7.28-11.57,7.28a11.82,11.82,0,0,1-12.14-11.48v-.72c0-7.08,5.11-12.2,12-12.2,6.37,0,12.13,4.14,12.13,13.85Zm-17.43-4.4h10.37a5,5,0,0,0-5.11-4.24,5.15,5.15,0,0,0-5.21,4.24Z"/><path d="M1815.12,1450.17a8.45,8.45,0,0,1-7.22,3.54c-6.38,0-11.23-5.11-11.23-12.2s4.8-12.2,11.17-12.2c3.54,0,6.23,1.61,7.39,3.58,0-.76-.11-2.68-.11-4.36v-10.82h6.57v35.43h-6.57Zm-11.67-8.64c0,3.53,2.42,6.37,5.91,6.37s5.92-2.84,5.92-6.37-2.43-6.32-5.92-6.32-5.91,2.73-5.91,6.32Z"/><path d="M1862,1417.72V1424h-10.57v29.15h-7V1424h-10.56v-6.27Z"/><path d="M1883,1443.45h-17.24a5.51,5.51,0,0,0,10,2.28l6.82.7c-2.07,5-6.42,7.28-11.57,7.28a11.82,11.82,0,0,1-12.14-11.48v-.72c0-7.08,5.11-12.2,12-12.2,6.37,0,12.13,4.14,12.13,13.85Zm-17.43-4.4h10.37a5,5,0,0,0-5.11-4.24,5.15,5.15,0,0,0-5.21,4.24Z"/><path d="M1891.46,1441.58l-7.34-11.63h7.59l4.09,6.93,4.25-6.93h7.38l-7.33,11.48,7.43,11.68h-7.63l-4.19-7-4,7h-7.58Z"/><path d="M1919.13,1421.16V1430h5v5.56h-5V1446c0,1.47,1.16,1.67,2.17,1.67,1.68,0,3-.15,3-.15v5.65s-3.18.3-5.1.3c-3.29,0-6.68-.55-6.68-5.23v-12.69h-3.64V1430h3.64v-8.8Z"/><path d="M558.17,1453.14h-7v-35.38h12c8.34,0,12.74,5.23,12.74,11.63s-4.36,11.77-12.74,11.77h-5Zm0-29.32v11.34h3.93c3.84,0,6.62-1.83,6.62-5.77s-2.78-5.56-6.62-5.56Z"/><path d="M586.27,1453.14h-6.52v-35.38h6.52Z"/><path d="M604.8,1437.69c0-1.67-1.31-2.74-3.84-2.74a15.78,15.78,0,0,0-7,2.18l-2.62-5a19.93,19.93,0,0,1,10-2.82c5.23,0,10,2.42,10,8.54v15.25H604.8V1451c-1.21,1.82-3.84,2.78-6.46,2.78-4.91,0-8.09-3.49-8.09-7.28,0-4.36,3.23-7.13,8.39-7.13h4.55c1.11,0,1.61-.51,1.61-1.36Zm0,7.12v-1.66a2.89,2.89,0,0,1-2,.5h-2.47c-2.08,0-3.29.87-3.29,2.53s1.26,2.73,3.29,2.73c2.35,0,4.49-1.21,4.49-4.1Z"/><path d="M624.69,1453.14h-6.57v-17.59h-3.23V1430h9.8Zm-3.58-35.38a4.23,4.23,0,0,1,4.24,4.23h0a4.22,4.22,0,1,1-4.27-4.28h0Z"/><path d="M643.75,1429.35c5,0,8.6,3.18,8.6,8.59v15.2h-6.58v-13.5c0-2.92-1.88-4.15-3.94-4.15a6.45,6.45,0,0,0-4.91,2.62v15h-6.57V1430h6.42v.87c0,.8-.1,1.81-.1,1.81A9.14,9.14,0,0,1,643.75,1429.35Z"/><path d="M692.39,1417.72V1424H681.82v29.15h-7V1424H664.28v-6.27Z"/><path d="M713.37,1443.45H696.13a5.5,5.5,0,0,0,10,2.28l6.82.7c-2.06,5-6.41,7.28-11.57,7.28a11.81,11.81,0,0,1-12.13-11.48q0-.36,0-.72c0-7.08,5.1-12.2,12-12.2,6.37,0,12.14,4.14,12.14,13.85Zm-17.44-4.4H706.3a5,5,0,0,0-5.1-4.24,5.17,5.17,0,0,0-5.23,4.24Z"/><path d="M721.86,1441.58,714.53,1430h7.58l4.09,6.93,4.25-6.93h7.38l-7.33,11.48,7.43,11.68h-7.62l-4.2-7-4.05,7h-7.58Z"/><path d="M749.48,1421.16V1430h5v5.56h-5V1446c0,1.47,1.16,1.67,2.17,1.67,1.67,0,3-.15,3-.15v5.65s-3.18.3-5.11.3c-3.29,0-6.67-.55-6.67-5.23v-12.69h-3.64V1430h3.64v-8.8Z"/><path d="M1091.85,646.35h-19.32v8.29h11.27v6h-11.27v9h19.32v6.06h-26.34V640.32h26.34Z"/><path d="M1109.34,651.91c5,0,8.59,3.18,8.59,8.59v15.2h-6.57V662.17c0-2.93-1.87-4.15-3.95-4.15a6.42,6.42,0,0,0-4.9,2.61V675.7h-6.57V652.51h6.42v.91c0,.81-.1,1.82-.1,1.82A9.11,9.11,0,0,1,1109.34,651.91Z"/><path d="M1128.44,664.08c0,3.65,2.38,6.32,5.82,6.32a5.29,5.29,0,0,0,5.1-3.54l6.17,1.93c-1.52,4.6-6.1,7.48-11.33,7.48a12.2,12.2,0,0,1-1.46-24.36,11.85,11.85,0,0,1,1.46,0c5.23,0,9.8,2.93,11.33,7.53l-6.17,1.86a5.38,5.38,0,0,0-5.1-3.54C1130.82,657.76,1128.44,660.45,1128.44,664.08Z"/><path d="M1163.63,659h-2.76c-3.34,0-4.86,1.56-4.86,5.61V675.7h-6.57V652.51h6.37v3.69a6.12,6.12,0,0,1,6-4,8,8,0,0,1,1.82.21Z"/><path d="M1174.65,675.7H1173L1165,652.54h7.33l4.91,16.49,5-16.49h7.13l-9.26,26.8c-1.16,3.39-3,5.23-7.22,5.23h-4.55v-5.52h3.23a2.43,2.43,0,0,0,2.62-1.81Z"/><path d="M1199.27,684.51h-6.57v-32h6.57v1.11c0,1.11-.11,1.62-.11,1.87,1.12-2,3.85-3.58,7.33-3.58,6.37,0,11.23,5.1,11.23,12.2s-4.91,12.2-11.28,12.2a8.32,8.32,0,0,1-7.17-3.54Zm-.16-20.43c0,3.54,2.43,6.37,5.92,6.37s5.91-2.83,5.91-6.37-2.42-6.32-5.91-6.32S1199.11,660.5,1199.11,664.08Z"/><path d="M1230.25,643.71v8.8h5v5.56h-5v10.46c0,1.46,1.16,1.66,2.17,1.66,1.68,0,3-.15,3-.15v5.66s-3.19.3-5.1.3c-3.29,0-6.68-.55-6.68-5.23v-12.7H1220v-5.56h3.64v-8.8Z"/><path d="M1262.5,666h-17.23a5.49,5.49,0,0,0,10,2.27l6.83.71c-2.08,5-6.42,7.28-11.58,7.28a11.81,11.81,0,0,1-12.13-11.48q0-.36,0-.72c0-7.08,5.11-12.21,12-12.21,6.37,0,12.13,4.14,12.13,13.85Zm-17.43-4.36h10.36a5,5,0,0,0-5.11-4.24,5.16,5.16,0,0,0-5.21,4.2Z"/><path d="M1283.43,672.73a8.45,8.45,0,0,1-7.23,3.54c-6.37,0-11.22-5.11-11.22-12.2s4.8-12.21,11.17-12.21c3.54,0,6.22,1.62,7.38,3.59,0-.76-.1-2.68-.1-4.36V640.28H1290V675.7h-6.57Zm-11.67-8.65c0,3.54,2.42,6.37,5.91,6.37s5.91-2.83,5.91-6.37-2.43-6.32-5.91-6.32-5.91,2.74-5.91,6.32Z"/><path d="M1330.29,640.28v6.27h-10.56V675.7h-7V646.55h-10.58v-6.27Z"/><path d="M1351.27,666H1334a5.49,5.49,0,0,0,10,2.27l6.83.71c-2.08,5-6.43,7.28-11.58,7.28a11.81,11.81,0,0,1-12.13-11.48q0-.36,0-.72c0-7.08,5.11-12.21,12-12.21,6.37,0,12.13,4.14,12.13,13.85Zm-17.43-4.36h10.41a5,5,0,0,0-5.11-4.24,5.16,5.16,0,0,0-5.26,4.2Z"/><path d="M1359.77,664.14l-7.33-11.63H1360l4.09,7,4.24-7h7.39L1368.41,664l7.43,11.68h-7.64l-4.19-7-4,7h-7.58Z"/><path d="M1387.41,643.71v8.8h5v5.56h-5v10.46c0,1.46,1.16,1.66,2.17,1.66,1.68,0,3-.15,3-.15v5.66s-3.18.3-5.1.3c-3.29,0-6.68-.55-6.68-5.23v-12.7h-3.64v-5.56h3.64v-8.8Z"/><path d="M1699.06,675.7h-7V640.32h12c8.35,0,12.74,5.23,12.74,11.62s-4.36,11.78-12.74,11.78h-5Zm0-29.32v11.33H1703c3.85,0,6.63-1.82,6.63-5.76s-2.78-5.56-6.63-5.56Z"/><path d="M1727.16,675.7h-6.52V640.32h6.52Z"/><path d="M1745.69,660.25c0-1.67-1.31-2.74-3.84-2.74a15.78,15.78,0,0,0-7,2.18l-2.62-5a19.83,19.83,0,0,1,10-2.82c5.22,0,10,2.42,10,8.54V675.7h-6.57v-2.18c-1.21,1.82-3.84,2.78-6.47,2.78-4.9,0-8.08-3.48-8.08-7.27,0-4.36,3.23-7.13,8.39-7.13h4.55c1.11,0,1.61-.51,1.61-1.36Zm0,7.12V665.7a2.85,2.85,0,0,1-2,.51h-2.48c-2.07,0-3.28.87-3.28,2.53s1.26,2.73,3.28,2.73C1743.55,671.47,1745.69,670.25,1745.69,667.37Z"/><path d="M1765.58,675.7H1759V658.07h-3.23v-5.56h9.8ZM1762,640.32a4.22,4.22,0,0,1,4.24,4.22v0a4.22,4.22,0,1,1-4.27-4.28h0Z"/><path d="M1784.64,651.91c5,0,8.6,3.18,8.6,8.59v15.2h-6.58V662.17c0-2.93-1.88-4.15-3.94-4.15a6.41,6.41,0,0,0-4.91,2.61V675.7h-6.57V652.51h6.42v.91c0,.81-.1,1.82-.1,1.82A9.08,9.08,0,0,1,1784.64,651.91Z"/><path d="M1833.28,640.28v6.27H1822.7V675.7h-7V646.55h-10.56v-6.27Z"/><path d="M1854.25,666H1837a5.49,5.49,0,0,0,10,2.27l6.82.71c-2.06,5-6.41,7.28-11.57,7.28a11.82,11.82,0,0,1-12.14-11.48c0-.24,0-.48,0-.72,0-7.08,5.1-12.21,12-12.21,6.37,0,12.13,4.14,12.13,13.85Zm-17.43-4.36h10.37a5,5,0,0,0-5.1-4.24,5.15,5.15,0,0,0-5.23,4.2Z"/><path d="M1862.74,664.14l-7.33-11.63H1863l4.09,7,4.25-7h7.38L1871.39,664l7.43,11.68h-7.62l-4.2-7-4,7h-7.58Z"/><path d="M1890.37,643.71v8.8h5v5.56h-5v10.46c0,1.46,1.16,1.66,2.17,1.66,1.67,0,3-.15,3-.15v5.66s-3.19.3-5.11.3c-3.29,0-6.67-.55-6.67-5.23v-12.7h-3.64v-5.56h3.64v-8.8Z"/><path d="M558.17,675.7h-7V640.32h12c8.34,0,12.74,5.23,12.74,11.62s-4.36,11.78-12.74,11.78h-5Zm0-29.32v11.33h3.93c3.84,0,6.62-1.82,6.62-5.76s-2.78-5.56-6.62-5.56Z"/><path d="M586.27,675.7h-6.52V640.32h6.52Z"/><path d="M604.8,660.25c0-1.67-1.31-2.74-3.84-2.74a15.78,15.78,0,0,0-7,2.18l-2.62-5a19.83,19.83,0,0,1,10-2.82c5.23,0,10,2.42,10,8.54V675.7H604.8v-2.18c-1.21,1.82-3.84,2.78-6.46,2.78-4.91,0-8.09-3.48-8.09-7.27,0-4.36,3.23-7.13,8.39-7.13h4.55c1.11,0,1.61-.51,1.61-1.36Zm0,7.12V665.7a2.85,2.85,0,0,1-2,.51h-2.47c-2.08,0-3.29.87-3.29,2.53s1.26,2.73,3.29,2.73C602.66,671.47,604.8,670.25,604.8,667.37Z"/><path d="M624.69,675.7h-6.57V658.07h-3.23v-5.56h9.8Zm-3.58-35.38a4.22,4.22,0,0,1,4.24,4.22v0a4.22,4.22,0,1,1-4.27-4.28h0Z"/><path d="M643.75,651.91c5,0,8.6,3.18,8.6,8.59v15.2h-6.58V662.17c0-2.93-1.88-4.15-3.94-4.15a6.41,6.41,0,0,0-4.91,2.61V675.7h-6.57V652.51h6.42v.91c0,.81-.1,1.82-.1,1.82A9.08,9.08,0,0,1,643.75,651.91Z"/><path d="M692.39,640.28v6.27H681.82V675.7h-7V646.55H664.28v-6.27Z"/><path d="M713.37,666H696.13a5.49,5.49,0,0,0,10,2.27l6.82.71c-2.06,5-6.41,7.28-11.57,7.28a11.81,11.81,0,0,1-12.13-11.48q0-.36,0-.72c0-7.08,5.1-12.21,12-12.21,6.37,0,12.14,4.14,12.14,13.85Zm-17.44-4.36H706.3a5,5,0,0,0-5.1-4.24,5.15,5.15,0,0,0-5.23,4.2Z"/><path d="M721.86,664.14l-7.33-11.63h7.58l4.09,7,4.25-7h7.38L730.5,664l7.43,11.68h-7.62l-4.2-7-4.05,7h-7.58Z"/><path d="M749.48,643.71v8.8h5v5.56h-5v10.46c0,1.46,1.16,1.66,2.17,1.66,1.67,0,3-.15,3-.15v5.66s-3.18.3-5.11.3c-3.29,0-6.67-.55-6.67-5.23v-12.7h-3.64v-5.56h3.64v-8.8Z"/><rect class="cls-7" x="1070.22" y="1073.14" width="320.74" height="47.06"/><path class="cls-8" d="M1313.39,1214.33v-20H1262v-49.68h-20v49.68H1208.8v-49.68h-20v49.68h-47.07v20h47.07v33.12h-47.07v20h47.07v48.81h20V1267.5h33.12v48.81h20V1267.5h51.42v-20H1262v-33.12Zm-71.47,33.12H1208.8v-33.12h33.12Z"/><circle class="cls-9" cx="1098.55" cy="1095.36" r="10.89"/><circle class="cls-3" cx="1136.03" cy="1095.36" r="10.89"/><circle class="cls-8" cx="1171.76" cy="1095.36" r="10.89"/><path d="M1715,1157.5c2.51,0,3.49-2,3.49-4.54s-1-4.57-3.49-4.57a4.24,4.24,0,0,0-3,1.12l-4.36-.48v-14h15.41v4.5h-10.84V1145h.2a7,7,0,0,1,3.74-1c5,0,7.85,3.57,7.85,8.59,0,5.32-3,9.14-8.72,9.14s-8.71-3.34-8.71-7.94v-1.17h5.32v1.13C1711.74,1155.69,1712.57,1157.5,1715,1157.5Z"/><path d="M1733.29,1146a5.46,5.46,0,0,1,3.49-1.09c4,0,7.91,2.62,7.91,8.21,0,5.23-3.64,8.72-8.93,8.72-5.57,0-9.25-3.82-9.25-9.29,0-7.58,5.65-13.64,8.71-16.56l.88-.79H1743l-.52.45a53.39,53.39,0,0,0-9.34,10.34Zm2.33,11.58c2.51,0,3.78-2,3.78-4.24s-1.27-4.3-3.78-4.3-3.86,2-3.86,4.3,1.27,4.24,3.86,4.24Z"/><path d="M1764.28,1142.05a6.2,6.2,0,0,1-3.75,5.7,6.83,6.83,0,0,1,4.36,6.3c0,4.79-3.71,7.75-9.07,7.75s-9.07-3-9.07-7.75a6.79,6.79,0,0,1,4.31-6.3,6.2,6.2,0,0,1-3.78-5.7c0-4.27,3.34-7.38,8.54-7.38S1764.28,1137.78,1764.28,1142.05Zm-4.68,11.74a3.84,3.84,0,1,0-4,3.71h.15a3.62,3.62,0,0,0,3.85-3.37c0-.11,0-.23,0-.34Zm-.45-11.34a3.42,3.42,0,0,0-6.79-.61,3.11,3.11,0,0,0,0,.61,3.39,3.39,0,1,0,6.78,0Z"/><path d="M1775.94,1157.5c2.51,0,3.49-2,3.49-4.54s-1-4.57-3.49-4.57a4.24,4.24,0,0,0-3,1.12l-4.36-.48v-14H1784v4.5h-10.93V1145h.18a7.16,7.16,0,0,1,3.75-1c5,0,7.84,3.57,7.84,8.59,0,5.32-3,9.14-8.71,9.14s-8.72-3.34-8.72-7.94v-1.17h5.31v1.13C1772.71,1155.69,1773.5,1157.5,1775.94,1157.5Z"/><path d="M1790.48,1161.36l9.34-21.74H1788v-4.5h16.86v4.5l-8.62,21.74Z"/><path d="M1812.48,1152.77c0,2.7,1.74,4.68,4.31,4.68a3.93,3.93,0,0,0,3.79-2.61l4.57,1.43c-1.12,3.41-4.49,5.54-8.4,5.54a9,9,0,0,1,0-18.06h0a8.55,8.55,0,0,1,8.4,5.58l-4.57,1.39a4,4,0,0,0-3.79-2.62C1814.24,1148.09,1812.48,1150.07,1812.48,1152.77Z"/><path d="M1829.31,1139.32c0-3.38,2.25-4.54,4.87-4.54,1.31,0,3.56.23,3.56.23v4.46s-1.5-.19-2-.19c-.94,0-1.54.23-1.54,1.42v3.49h3.3v4.12h-3.3v13.08h-4.87v-13.08h-2.7v-4.12h2.7Z"/><path d="M1844,1152.77c0,2.7,1.74,4.68,4.36,4.68a3.92,3.92,0,0,0,3.78-2.61l4.57,1.43c-1.13,3.41-4.5,5.54-8.39,5.54a9,9,0,1,1,0-18.06h0a8.56,8.56,0,0,1,8.39,5.58l-4.65,1.38a4,4,0,0,0-3.78-2.62C1845.72,1148.09,1844,1150.07,1844,1152.77Z"/><path d="M1861.72,1161.36l9.34-21.74h-11.81v-4.5h16.86v4.5l-8.62,21.74Z"/><path d="M1724.3,1196.13c0,9.34-3.64,13.61-9.15,13.61s-9.18-4.27-9.18-13.61c0-9.17,3.64-13.52,9.18-13.52S1724.3,1187,1724.3,1196.13Zm-9.15,8.82c2.62,0,3.83-3,3.83-8.82s-1.24-8.76-3.83-8.76-3.82,3-3.82,8.76,1.24,8.82,3.86,8.82Z"/><path d="M1737.6,1198.43a5.44,5.44,0,0,1-3.48,1.08c-4,0-7.91-2.62-7.91-8.2,0-5.23,3.64-8.72,8.92-8.72,5.59,0,9.25,3.83,9.25,9.29,0,7.58-5.65,13.65-8.71,16.56l-.82.79H1728l.52-.45a52.78,52.78,0,0,0,9.32-10.34Zm-2.32-11.59c-2.51,0-3.79,2-3.79,4.24s1.28,4.31,3.79,4.31,3.86-2,3.86-4.31-1.29-4.24-3.86-4.24Z"/><path d="M1760.39,1207.12a6.28,6.28,0,0,1-5.36,2.61c-4.72,0-8.32-3.78-8.32-9s3.56-9,8.28-9a6.23,6.23,0,0,1,5.47,2.62c0-.57-.07-2-.07-3.26v-8h4.87v26.23h-4.87Zm-8.66-6.41a4.39,4.39,0,1,0,4.39-4.38A4.38,4.38,0,0,0,1751.73,1200.71Z"/><path d="M1768.63,1201.8v-1.17H1774v1.13c0,1.87.82,3.67,3.29,3.67s3.49-1.74,3.49-4.16a3.92,3.92,0,0,0-3.59-4.2,4.7,4.7,0,0,0-.65,0,13.88,13.88,0,0,0-2.73.26v-4.65l6-5.13h-9.86v-4.5h15.74v5l-6.78,5.44a7.5,7.5,0,0,1,7.31,7.7v0c0,5-3.49,8.54-8.77,8.54C1771.78,1209.74,1768.63,1206.4,1768.63,1201.8Z"/><path d="M1800,1198.43a5.44,5.44,0,0,1-3.48,1.08c-4,0-7.92-2.62-7.92-8.2,0-5.23,3.65-8.72,8.93-8.72,5.58,0,9.25,3.83,9.25,9.29,0,7.58-5.65,13.65-8.71,16.56l-.83.79h-6.89l.52-.45a52.78,52.78,0,0,0,9.33-10.34Zm-2.32-11.59c-2.51,0-3.79,2-3.79,4.24s1.28,4.31,3.79,4.31,3.86-2,3.86-4.31S1800.3,1186.84,1797.72,1186.84Z"/><path d="M1820.35,1198.43a5.45,5.45,0,0,1-3.49,1.08c-4,0-7.9-2.62-7.9-8.2,0-5.23,3.63-8.72,8.92-8.72,5.58,0,9.25,3.83,9.25,9.29,0,7.58-5.65,13.65-8.71,16.56l-.88.79h-6.89l.52-.45a53.41,53.41,0,0,0,9.34-10.34Zm-2.32-11.59c-2.52,0-3.79,2-3.79,4.24s1.27,4.31,3.79,4.31,3.85-2,3.85-4.31S1820.65,1186.84,1818,1186.84Z"/><path d="M1836.34,1193.93a5.37,5.37,0,0,1,3.48-1.09c4,0,7.91,2.62,7.91,8.21,0,5.23-3.64,8.72-8.92,8.72-5.59,0-9.26-3.82-9.26-9.29,0-7.58,5.66-13.64,8.72-16.56l.82-.79h6.9l-.53.45a53.12,53.12,0,0,0-9.33,10.34Zm2.32,11.57c2.51,0,3.79-1.94,3.79-4.23s-1.28-4.31-3.79-4.31-3.86,2-3.86,4.31,1.29,4.23,3.88,4.23Z"/><path d="M1852,1187.25c0-3.37,2.25-4.53,4.88-4.53,1.31,0,3.56.23,3.56.23v4.45s-1.5-.18-2-.18c-.94,0-1.54.23-1.54,1.42v3.49h3.3v4.12h-3.3v13.07H1852v-13.07h-2.69v-4.12H1852Z"/><path d="M1880.17,1196.13c0,9.34-3.64,13.61-9.15,13.61s-9.18-4.27-9.18-13.61c0-9.17,3.63-13.52,9.18-13.52S1880.17,1187,1880.17,1196.13ZM1871,1205c2.62,0,3.82-3,3.82-8.82s-1.24-8.76-3.82-8.76-3.82,3-3.82,8.76S1868.4,1205,1871,1205Z"/><path d="M1715,1253.37c2.51,0,3.49-1.95,3.49-4.54s-1-4.57-3.49-4.57a4.2,4.2,0,0,0-3,1.13l-4.36-.49v-14h15.41v4.5h-10.84v5.43h.2a7.11,7.11,0,0,1,3.74-1c5,0,7.85,3.56,7.85,8.58,0,5.33-3,9.14-8.72,9.14s-8.71-3.33-8.71-7.94v-1.16h5.32v1.12C1711.74,1251.57,1712.57,1253.37,1715,1253.37Z"/><path d="M1729.54,1257.23l9.34-21.73h-11.81V1231H1744v4.5l-8.62,21.73Z"/><path d="M1747.16,1252.73s4.42-3.9,7.76-7,4-5,4-7.15a3.27,3.27,0,0,0-3.17-3.38h-.32c-2,0-3.48,1.19-3.48,3.11a6.78,6.78,0,0,0,.67,2.73l-4.79.88a8.34,8.34,0,0,1-1-4.06c0-3.67,3.08-7.27,8.65-7.27,5.74,0,8.77,3.75,8.77,7.73,0,3.11-1,6.1-7.41,11.73l-3.12,2.73h10.87v4.5h-17.43Z"/><path d="M1775.94,1253.37c2.51,0,3.49-1.95,3.49-4.54s-1-4.57-3.49-4.57a4.25,4.25,0,0,0-3,1.13l-4.36-.49v-14H1784v4.5h-10.93v5.43h.18a7.15,7.15,0,0,1,3.75-1c5,0,7.84,3.56,7.84,8.58,0,5.33-3,9.14-8.71,9.14s-8.72-3.33-8.72-7.94v-1.16h5.31v1.12C1772.71,1251.57,1773.5,1253.37,1775.94,1253.37Z"/><path d="M1787.78,1252.73s4.43-3.9,7.77-7,4-5,4-7.15a3.27,3.27,0,0,0-3.17-3.38h-.31c-2,0-3.49,1.19-3.49,3.11a6.78,6.78,0,0,0,.67,2.73l-4.79.88a8.45,8.45,0,0,1-1-4.06c0-3.67,3.08-7.27,8.66-7.27s8.78,3.75,8.78,7.73c0,3.11-1,6.1-7.43,11.73l-3.11,2.73h10.87v4.5h-17.44Z"/><path d="M1812.48,1248.65c0,2.69,1.74,4.68,4.31,4.68a3.94,3.94,0,0,0,3.79-2.62l4.57,1.43c-1.12,3.41-4.49,5.55-8.4,5.55a9,9,0,0,1,0-18.06h0a8.55,8.55,0,0,1,8.4,5.57l-4.57,1.39a4,4,0,0,0-3.79-2.61C1814.24,1244,1812.48,1246,1812.48,1248.65Z"/><path d="M1829.16,1231h10v21.73h5.06v4.5h-15.4v-4.5h5.06V1235.5h-4.76Z"/><path d="M1854.31,1241.87a5.33,5.33,0,0,1,3.48-1.09c4,0,7.91,2.61,7.91,8.21,0,5.23-3.64,8.71-8.92,8.71-5.58,0-9.25-3.81-9.25-9.29,0-7.57,5.65-13.64,8.71-16.56l.87-.78h6.9l-.53.44a53.86,53.86,0,0,0-9.33,10.35Zm2.32,11.57c2.51,0,3.79-1.94,3.79-4.24s-1.28-4.3-3.79-4.3-3.86,2-3.86,4.3S1854.05,1253.44,1856.63,1253.44Z"/><path d="M1885.6,1250.07h-12.78a4.08,4.08,0,0,0,7.38,1.69l5.07.52c-1.55,3.67-4.77,5.4-8.59,5.4a9,9,0,1,1-.08-18.06h0c4.73,0,9,3.07,9,10.26Zm-12.89-3.26h7.68a3.73,3.73,0,0,0-3.79-3.15A3.82,3.82,0,0,0,1872.71,1246.81Z"/><path d="M1710.92,1296.58c0,2.7,1.74,4.68,4.35,4.68a3.93,3.93,0,0,0,3.79-2.61l4.57,1.43c-1.12,3.41-4.5,5.54-8.39,5.54a9,9,0,1,1,0-18.06h0a8.55,8.55,0,0,1,8.39,5.58l-4.57,1.39a4,4,0,0,0-3.79-2.62C1712.69,1291.9,1710.92,1293.88,1710.92,1296.58Z"/><path d="M1725.12,1294.11l8.85-15.18h6.67v15.21H1744v4.36h-3.3v6.71h-5.06v-6.71h-10.46Zm4.5,0h6v-10h-.19Z"/><path d="M1752.74,1289.8a5.42,5.42,0,0,1,3.49-1.09c4,0,7.9,2.62,7.9,8.21,0,5.23-3.63,8.72-8.91,8.72-5.59,0-9.26-3.82-9.26-9.29,0-7.58,5.66-13.64,8.72-16.56l.82-.79h6.9l-.53.45a53.42,53.42,0,0,0-9.33,10.34Zm2.33,11.58c2.51,0,3.78-2,3.78-4.24s-1.27-4.3-3.78-4.3-3.86,2-3.86,4.3S1752.48,1301.38,1755.07,1301.38Z"/><path d="M1775.08,1301.31c2.51,0,3.49-2,3.49-4.54s-1-4.57-3.49-4.57a4.26,4.26,0,0,0-3,1.12l-4.35-.48v-13.95h15.4v4.5H1772.3v5.43h.18a7.09,7.09,0,0,1,3.75-1c5,0,7.85,3.57,7.85,8.59,0,5.32-3,9.14-8.72,9.14s-8.72-3.34-8.72-7.94v-1.17h5.2v1.13C1771.84,1299.5,1772.64,1301.31,1775.08,1301.31Z"/><path d="M1793.37,1289.8a5.45,5.45,0,0,1,3.48-1.09c4,0,7.91,2.62,7.91,8.21,0,5.23-3.64,8.72-8.92,8.72-5.58,0-9.25-3.82-9.25-9.29,0-7.58,5.65-13.64,8.71-16.56l.82-.79h6.9l-.53.45a53.1,53.1,0,0,0-9.32,10.34Zm2.32,11.58c2.51,0,3.79-2,3.79-4.24s-1.28-4.3-3.79-4.3-3.86,2-3.86,4.3S1793.11,1301.38,1795.69,1301.38Z"/><path d="M1809,1283.13c0-3.38,2.25-4.54,4.88-4.54,1.31,0,3.56.23,3.56.23v4.45s-1.5-.18-2-.18c-.94,0-1.54.23-1.54,1.42V1288h3.29v4.12h-3.3v13.07H1809v-13.07h-2.7V1288h2.7Z"/><path d="M1827.88,1301.31c2.51,0,3.49-2,3.49-4.54s-1-4.57-3.49-4.57a4.26,4.26,0,0,0-3,1.12l-4.35-.48v-13.95h15.4v4.5H1825v5.43h.2a7,7,0,0,1,3.74-1c5,0,7.85,3.57,7.85,8.59,0,5.32-3,9.14-8.72,9.14s-8.71-3.34-8.71-7.94v-1.17h5.31v1.13C1824.62,1299.5,1825.45,1301.31,1827.88,1301.31Z"/><path d="M1839.73,1300.67s4.42-3.9,7.75-7.05,4-5,4-7.16a3.27,3.27,0,0,0-3.17-3.37H1848c-2,0-3.49,1.2-3.49,3.11a6.86,6.86,0,0,0,.67,2.74l-4.79.87a8.17,8.17,0,0,1-1-4c0-3.67,3.07-7.27,8.66-7.27s8.76,3.75,8.76,7.72c0,3.11-1,6.1-7.41,11.73l-3.12,2.74h10.87v4.5h-17.43Z"/><path d="M1870.8,1294.3a5.41,5.41,0,0,1-3.49,1.08c-4,0-7.9-2.61-7.9-8.2,0-5.23,3.63-8.72,8.91-8.72,5.59,0,9.26,3.83,9.26,9.29,0,7.58-5.66,13.65-8.72,16.56l-.82.8h-6.9l.53-.46a53.12,53.12,0,0,0,9.33-10.34Zm-2.33-11.58c-2.51,0-3.78,1.94-3.78,4.23s1.27,4.31,3.78,4.31,3.86-2,3.86-4.31S1871.06,1282.72,1868.47,1282.72Z"/></svg>